<svg width="24" height="24" viewBox="0 0 24 24" fill="none" xmlns="http://www.w3.org/2000/svg">
<path fill-rule="evenodd" clip-rule="evenodd" d="M18.5 20H5.5C4.67 20 4 19.33 4 18.5C4 15.63 6.22 13.26 9.04 13.02C9.87 13.64 10.89 14 12 14C13.11 14 14.13 13.64 14.96 13.02C17.78 13.26 20 15.63 20 18.5C20 19.33 19.33 20 18.5 20ZM8 9C8 6.79 9.79 5 12 5C14.21 5 16 6.79 16 9C16 10.2 15.47 11.28 14.63 12.01C13.92 12.63 13 13 12 13C11 13 10.08 12.63 9.37 12.01C8.53 11.28 8 10.2 8 9ZM15.88 12.15C16.58 11.29 17 10.19 17 9C17 6.24 14.76 4 12 4C9.24 4 7 6.24 7 9C7 10.19 7.42 11.29 8.12 12.15C5.19 12.78 3 15.38 3 18.5C3 19.88 4.12 21 5.5 21H18.5C19.88 21 21 19.88 21 18.5C21 15.38 18.81 12.78 15.88 12.15Z" fill="currentColor"/>
</svg>
